<?xml version="1.0" standalone="no"?>
<!DOCTYPE svg PUBLIC "-//W3C//DTD SVG 20010904//EN"
 "http://www.w3.org/TR/2001/REC-SVG-20010904/DTD/svg10.dtd">
<svg version="1.0" xmlns="http://www.w3.org/2000/svg"
 width="820.000000pt" height="362.000000pt" viewBox="0 0 820.000000 362.000000"
 preserveAspectRatio="xMidYMid meet">

<g transform="translate(0.000000,362.000000) scale(0.100000,-0.100000)"
fill="#000000" stroke="none">
<path d="M3630 3603 c-1066 -61 -2172 -319 -3075 -718 -292 -129 -409 -200
-477 -290 -78 -103 -73 -18 -73 -1250 0 -1017 1 -1104 17 -1156 10 -31 24 -61
31 -68 11 -8 1058 -10 4053 -9 l4039 3 25 60 25 60 0 1120 0 1120 -29 63 c-50
108 -136 171 -403 296 -935 435 -1994 694 -3128 766 -142 9 -864 11 -1005 3z
m-972 -962 c114 -51 166 -168 131 -295 -13 -46 -74 -115 -126 -142 -21 -10
-40 -20 -42 -21 -2 -1 42 -63 98 -138 55 -74 101 -137 101 -140 0 -3 -37 -5
-82 -5 l-83 1 -95 129 c-104 141 -94 135 -217 144 l-63 4 0 -139 0 -139 -70 0
-70 0 0 215 0 215 23 -4 c161 -34 374 -41 424 -14 44 25 63 55 63 104 0 60
-35 99 -101 113 -27 6 -131 11 -229 11 l-180 0 0 66 0 66 233 -4 c218 -3 235
-5 285 -27z m382 -223 c0 -225 3 -258 19 -293 32 -69 90 -105 170 -105 45 0
118 36 144 71 31 43 37 94 37 342 l0 237 71 0 70 0 -3 -277 c-3 -266 -4 -280
-26 -329 -29 -63 -82 -116 -147 -146 -42 -19 -67 -23 -155 -23 -95 0 -111 3
-162 28 -68 33 -110 81 -140 157 -19 49 -22 80 -26 307 -2 139 -2 259 1 268 5
11 23 15 77 15 l70 0 0 -252z m1225 187 l0 -60 -232 -3 -233 -2 0 -89 0 -88
46 -7 c26 -3 103 -6 171 -6 l124 0 -3 -62 -3 -63 -167 0 -168 1 0 -98 0 -98
240 0 240 0 0 -65 0 -65 -310 0 -310 0 0 385 0 385 303 -2 302 -3 0 -60z m820
40 c65 -23 147 -77 178 -118 159 -210 81 -503 -160 -598 -52 -21 -78 -23 -255
-27 l-198 -4 0 379 c0 209 3 383 8 387 4 5 90 6 192 3 142 -3 197 -9 235 -22z
m497 -237 c3 -244 4 -266 24 -298 58 -100 205 -121 285 -41 20 20 42 54 48 76
6 24 11 136 11 283 l0 242 70 0 70 0 0 -265 c0 -315 -7 -345 -94 -430 -69 -68
-134 -89 -254 -83 -102 5 -161 28 -217 83 -76 77 -80 94 -83 413 l-3 282 70 0
70 0 3 -262z m-4186 -789 c65 -12 160 -58 195 -95 l22 -23 -43 -48 c-24 -27
-45 -50 -46 -52 -2 -2 -18 9 -36 24 -53 45 -106 65 -176 65 -106 0 -181 -48
-222 -142 -59 -134 -9 -292 112 -352 95 -47 206 -31 289 42 l36 31 47 -48 47
-48 -43 -37 c-128 -111 -313 -133 -460 -54 -267 142 -270 549 -6 693 89 49
180 63 284 44z m809 -20 c108 -40 193 -131 230 -247 26 -78 17 -208 -17 -284
-74 -161 -247 -254 -427 -228 -275 39 -421 334 -289 582 53 99 154 174 270
198 61 13 168 3 233 -21z m4125 21 c66 -13 144 -48 189 -87 l33 -28 -47 -52
-46 -52 -42 30 c-62 45 -102 59 -171 59 -113 -1 -200 -67 -232 -176 -50 -174
64 -344 231 -344 66 0 108 14 168 56 26 19 50 34 54 34 13 0 83 -74 83 -87 0
-16 -95 -88 -145 -109 -99 -41 -243 -36 -342 12 -69 33 -155 127 -184 201 -18
46 -23 78 -23 153 0 120 24 187 96 265 61 67 114 100 193 119 74 18 116 19
185 6z m-1330 -65 l0 -65 -235 0 -235 0 0 -89 0 -88 46 -7 c26 -3 102 -6 170
-6 l124 0 0 -66 0 -67 -170 5 -170 4 0 -98 0 -98 240 0 240 0 0 -65 0 -65
-310 0 -310 0 0 385 0 385 305 0 305 0 0 -65z m2270 0 l0 -65 -235 0 -235 0 0
-89 0 -88 53 -7 c28 -3 105 -6 170 -6 l117 0 0 -66 0 -67 -170 5 -171 5 3 -96
3 -96 243 -3 242 -2 0 -65 0 -65 -315 0 -315 0 0 378 c0 208 3 382 7 385 3 4
141 7 305 7 l298 0 0 -65z m-4532 -12 c40 -68 104 -157 161 -223 l29 -35 23
20 c38 34 132 157 178 233 l43 72 79 0 79 0 0 -380 0 -380 -70 0 -70 0 0 270
0 271 -76 -101 c-94 -124 -125 -150 -186 -150 -41 0 -49 5 -96 53 -45 46 -103
118 -139 174 -9 14 -12 -39 -12 -249 l-1 -268 -70 0 -70 0 0 380 0 380 79 0
79 0 40 -67z m922 10 c41 -72 106 -164 160 -223 l40 -45 51 55 c44 48 119 154
173 243 16 26 20 27 96 27 l80 0 0 -380 0 -380 -75 0 -75 0 0 267 0 267 -44
-63 c-24 -35 -70 -90 -101 -122 -56 -57 -60 -59 -108 -59 -47 0 -54 3 -98 49
-26 27 -70 81 -98 121 l-51 73 0 -266 0 -267 -70 0 -70 0 0 380 0 380 79 0 79
0 32 -57z m1961 42 c99 -34 159 -116 159 -217 0 -104 -38 -170 -126 -219 -37
-21 -52 -35 -46 -43 70 -90 192 -256 192 -261 0 -3 -37 -5 -82 -5 l-83 1 -95
128 -95 129 -90 9 -90 8 -3 -137 -3 -138 -69 0 -70 0 0 380 0 380 228 0 c179
0 238 -3 273 -15z"/>
<path d="M4800 2287 l0 -257 83 0 c45 0 102 5 127 11 97 22 162 92 182 195 14
79 -7 158 -60 216 -53 59 -103 78 -227 85 l-105 6 0 -256z"/>
<path d="M1943 1469 c-144 -71 -185 -267 -84 -406 61 -84 199 -118 296 -74 51
23 118 98 133 149 41 136 -22 287 -140 336 -55 23 -154 21 -205 -5z"/>
<path d="M5260 1366 l0 -114 86 -7 c108 -9 191 -2 233 20 59 30 76 119 32 169
-35 39 -65 46 -211 46 l-140 0 0 -114z"/>
</g>
</svg>
